<mxfile host="app.diagrams.net" agent="Mozilla/5.0 (Windows NT 10.0; Win64; x64) AppleWebKit/537.36 (KHTML, like Gecko) Chrome/127.0.0.0 Safari/537.36" version="24.7.7">
  <diagram name="Page-1" id="kywHqdu9UFCqFl5J2rkw">
    <mxGraphModel dx="1760" dy="936" grid="1" gridSize="10" guides="1" tooltips="1" connect="1" arrows="1" fold="1" page="1" pageScale="1" pageWidth="850" pageHeight="1100" math="0" shadow="0">
      <root>
        <mxCell id="0" />
        <mxCell id="1" parent="0" />
        <mxCell id="hBE5B_rOE-flIdbmFjBY-1" value="&lt;font style=&quot;font-size: 18px;&quot; face=&quot;Comic Sans MS&quot;&gt;CDN&lt;/font&gt;" style="ellipse;whiteSpace=wrap;html=1;" vertex="1" parent="1">
          <mxGeometry x="340" y="30" width="120" height="80" as="geometry" />
        </mxCell>
        <mxCell id="hBE5B_rOE-flIdbmFjBY-2" value="&lt;font face=&quot;Comic Sans MS&quot; style=&quot;font-size: 18px;&quot;&gt;Edge Caching&lt;/font&gt;" style="ellipse;whiteSpace=wrap;html=1;" vertex="1" parent="1">
          <mxGeometry x="340" y="160" width="120" height="80" as="geometry" />
        </mxCell>
        <mxCell id="hBE5B_rOE-flIdbmFjBY-3" value="&lt;font face=&quot;Comic Sans MS&quot; style=&quot;font-size: 18px;&quot;&gt;Global Load&amp;nbsp;&lt;/font&gt;&lt;div&gt;&lt;font face=&quot;Comic Sans MS&quot; style=&quot;font-size: 18px;&quot;&gt;Balancer&lt;/font&gt;&lt;/div&gt;" style="ellipse;whiteSpace=wrap;html=1;" vertex="1" parent="1">
          <mxGeometry x="340" y="290" width="120" height="80" as="geometry" />
        </mxCell>
        <mxCell id="hBE5B_rOE-flIdbmFjBY-4" value="&lt;font face=&quot;Comic Sans MS&quot; style=&quot;font-size: 14px;&quot;&gt;Database&lt;/font&gt;&lt;div&gt;&lt;font face=&quot;bUT_ImNL3fzGdxDY75pk&quot; size=&quot;3&quot;&gt;(RDS)&lt;/font&gt;&lt;/div&gt;" style="shape=parallelogram;perimeter=parallelogramPerimeter;whiteSpace=wrap;html=1;fixedSize=1;" vertex="1" parent="1">
          <mxGeometry x="100" y="440" width="120" height="60" as="geometry" />
        </mxCell>
        <mxCell id="hBE5B_rOE-flIdbmFjBY-5" value="&lt;font style=&quot;font-size: 14px;&quot; face=&quot;Comic Sans MS&quot;&gt;Database&lt;/font&gt;&lt;div&gt;&lt;font face=&quot;Comic Sans MS&quot; size=&quot;3&quot;&gt;(RDS)&lt;/font&gt;&lt;/div&gt;" style="shape=parallelogram;perimeter=parallelogramPerimeter;whiteSpace=wrap;html=1;fixedSize=1;" vertex="1" parent="1">
          <mxGeometry x="580" y="440" width="120" height="60" as="geometry" />
        </mxCell>
        <mxCell id="hBE5B_rOE-flIdbmFjBY-6" value="&lt;font size=&quot;3&quot; face=&quot;Comic Sans MS&quot;&gt;Servers&lt;/font&gt;" style="rounded=1;whiteSpace=wrap;html=1;" vertex="1" parent="1">
          <mxGeometry x="10" y="600" width="90" height="50" as="geometry" />
        </mxCell>
        <mxCell id="hBE5B_rOE-flIdbmFjBY-7" value="&lt;font size=&quot;3&quot; face=&quot;Comic Sans MS&quot;&gt;Servers&lt;/font&gt;" style="rounded=1;whiteSpace=wrap;html=1;" vertex="1" parent="1">
          <mxGeometry x="115" y="600" width="90" height="50" as="geometry" />
        </mxCell>
        <mxCell id="hBE5B_rOE-flIdbmFjBY-11" value="&lt;font size=&quot;3&quot; face=&quot;Comic Sans MS&quot;&gt;Servers&lt;/font&gt;" style="rounded=1;whiteSpace=wrap;html=1;" vertex="1" parent="1">
          <mxGeometry x="220" y="600" width="90" height="50" as="geometry" />
        </mxCell>
        <mxCell id="hBE5B_rOE-flIdbmFjBY-12" value="&lt;font size=&quot;3&quot; face=&quot;Comic Sans MS&quot;&gt;Servers&lt;/font&gt;" style="rounded=1;whiteSpace=wrap;html=1;" vertex="1" parent="1">
          <mxGeometry x="490" y="600" width="90" height="50" as="geometry" />
        </mxCell>
        <mxCell id="hBE5B_rOE-flIdbmFjBY-13" value="&lt;font size=&quot;3&quot; face=&quot;Comic Sans MS&quot;&gt;Servers&lt;/font&gt;" style="rounded=1;whiteSpace=wrap;html=1;" vertex="1" parent="1">
          <mxGeometry x="595" y="600" width="90" height="50" as="geometry" />
        </mxCell>
        <mxCell id="hBE5B_rOE-flIdbmFjBY-14" value="&lt;font size=&quot;3&quot; face=&quot;Comic Sans MS&quot;&gt;Servers&lt;/font&gt;" style="rounded=1;whiteSpace=wrap;html=1;" vertex="1" parent="1">
          <mxGeometry x="700" y="600" width="90" height="50" as="geometry" />
        </mxCell>
        <mxCell id="hBE5B_rOE-flIdbmFjBY-16" value="&lt;font size=&quot;3&quot; face=&quot;Comic Sans MS&quot;&gt;Load Balancer&lt;/font&gt;" style="ellipse;whiteSpace=wrap;html=1;" vertex="1" parent="1">
          <mxGeometry x="590" y="740" width="100" height="60" as="geometry" />
        </mxCell>
        <mxCell id="hBE5B_rOE-flIdbmFjBY-18" value="&lt;font size=&quot;3&quot; face=&quot;Comic Sans MS&quot;&gt;Load Balancer&lt;/font&gt;" style="ellipse;whiteSpace=wrap;html=1;" vertex="1" parent="1">
          <mxGeometry x="110" y="740" width="100" height="60" as="geometry" />
        </mxCell>
        <mxCell id="hBE5B_rOE-flIdbmFjBY-21" value="" style="endArrow=classic;startArrow=classic;html=1;rounded=0;" edge="1" parent="1">
          <mxGeometry width="50" height="50" relative="1" as="geometry">
            <mxPoint x="240" y="430" as="sourcePoint" />
            <mxPoint x="340" y="360" as="targetPoint" />
          </mxGeometry>
        </mxCell>
        <mxCell id="hBE5B_rOE-flIdbmFjBY-22" value="" style="endArrow=classic;startArrow=classic;html=1;rounded=0;" edge="1" parent="1">
          <mxGeometry width="50" height="50" relative="1" as="geometry">
            <mxPoint x="470" y="370" as="sourcePoint" />
            <mxPoint x="590" y="430" as="targetPoint" />
          </mxGeometry>
        </mxCell>
        <mxCell id="hBE5B_rOE-flIdbmFjBY-23" value="" style="endArrow=classic;startArrow=classic;html=1;rounded=0;exitX=0.5;exitY=0;exitDx=0;exitDy=0;entryX=0.617;entryY=1.1;entryDx=0;entryDy=0;entryPerimeter=0;" edge="1" parent="1" source="hBE5B_rOE-flIdbmFjBY-11" target="hBE5B_rOE-flIdbmFjBY-4">
          <mxGeometry width="50" height="50" relative="1" as="geometry">
            <mxPoint x="250" y="530" as="sourcePoint" />
            <mxPoint x="386" y="447" as="targetPoint" />
          </mxGeometry>
        </mxCell>
        <mxCell id="hBE5B_rOE-flIdbmFjBY-24" value="" style="endArrow=classic;startArrow=classic;html=1;rounded=0;exitX=0.5;exitY=0;exitDx=0;exitDy=0;entryX=0.5;entryY=1;entryDx=0;entryDy=0;" edge="1" parent="1" source="hBE5B_rOE-flIdbmFjBY-7" target="hBE5B_rOE-flIdbmFjBY-4">
          <mxGeometry width="50" height="50" relative="1" as="geometry">
            <mxPoint x="170" y="550" as="sourcePoint" />
            <mxPoint x="306" y="467" as="targetPoint" />
          </mxGeometry>
        </mxCell>
        <mxCell id="hBE5B_rOE-flIdbmFjBY-25" value="" style="endArrow=classic;startArrow=classic;html=1;rounded=0;exitX=0.5;exitY=0;exitDx=0;exitDy=0;" edge="1" parent="1" source="hBE5B_rOE-flIdbmFjBY-6">
          <mxGeometry width="50" height="50" relative="1" as="geometry">
            <mxPoint x="60" y="550" as="sourcePoint" />
            <mxPoint x="140" y="510" as="targetPoint" />
          </mxGeometry>
        </mxCell>
        <mxCell id="hBE5B_rOE-flIdbmFjBY-34" value="" style="endArrow=classic;startArrow=classic;html=1;rounded=0;exitX=0.5;exitY=0;exitDx=0;exitDy=0;entryX=0.25;entryY=1;entryDx=0;entryDy=0;" edge="1" parent="1" source="hBE5B_rOE-flIdbmFjBY-12" target="hBE5B_rOE-flIdbmFjBY-5">
          <mxGeometry width="50" height="50" relative="1" as="geometry">
            <mxPoint x="540" y="530" as="sourcePoint" />
            <mxPoint x="540" y="430" as="targetPoint" />
          </mxGeometry>
        </mxCell>
        <mxCell id="hBE5B_rOE-flIdbmFjBY-35" value="" style="endArrow=classic;startArrow=classic;html=1;rounded=0;exitX=0.5;exitY=0;exitDx=0;exitDy=0;entryX=0.5;entryY=1;entryDx=0;entryDy=0;" edge="1" parent="1" source="hBE5B_rOE-flIdbmFjBY-13" target="hBE5B_rOE-flIdbmFjBY-5">
          <mxGeometry width="50" height="50" relative="1" as="geometry">
            <mxPoint x="630" y="550" as="sourcePoint" />
            <mxPoint x="640" y="510" as="targetPoint" />
          </mxGeometry>
        </mxCell>
        <mxCell id="hBE5B_rOE-flIdbmFjBY-36" value="" style="endArrow=classic;startArrow=classic;html=1;rounded=0;entryX=0.75;entryY=1;entryDx=0;entryDy=0;exitX=0.5;exitY=0;exitDx=0;exitDy=0;" edge="1" parent="1" source="hBE5B_rOE-flIdbmFjBY-14" target="hBE5B_rOE-flIdbmFjBY-5">
          <mxGeometry width="50" height="50" relative="1" as="geometry">
            <mxPoint x="740" y="590" as="sourcePoint" />
            <mxPoint x="730" y="430" as="targetPoint" />
          </mxGeometry>
        </mxCell>
        <mxCell id="hBE5B_rOE-flIdbmFjBY-37" value="" style="endArrow=classic;startArrow=classic;html=1;rounded=0;exitX=1;exitY=0;exitDx=0;exitDy=0;entryX=0.5;entryY=1;entryDx=0;entryDy=0;" edge="1" parent="1" source="hBE5B_rOE-flIdbmFjBY-18" target="hBE5B_rOE-flIdbmFjBY-11">
          <mxGeometry width="50" height="50" relative="1" as="geometry">
            <mxPoint x="250" y="790" as="sourcePoint" />
            <mxPoint x="250" y="690" as="targetPoint" />
          </mxGeometry>
        </mxCell>
        <mxCell id="hBE5B_rOE-flIdbmFjBY-38" value="" style="endArrow=classic;startArrow=classic;html=1;rounded=0;exitX=0.5;exitY=0;exitDx=0;exitDy=0;entryX=0.5;entryY=1;entryDx=0;entryDy=0;" edge="1" parent="1" source="hBE5B_rOE-flIdbmFjBY-16" target="hBE5B_rOE-flIdbmFjBY-13">
          <mxGeometry width="50" height="50" relative="1" as="geometry">
            <mxPoint x="730" y="740" as="sourcePoint" />
            <mxPoint x="730" y="640" as="targetPoint" />
          </mxGeometry>
        </mxCell>
        <mxCell id="hBE5B_rOE-flIdbmFjBY-39" value="" style="endArrow=classic;startArrow=classic;html=1;rounded=0;exitX=1;exitY=0;exitDx=0;exitDy=0;entryX=0.5;entryY=1;entryDx=0;entryDy=0;" edge="1" parent="1" source="hBE5B_rOE-flIdbmFjBY-16" target="hBE5B_rOE-flIdbmFjBY-14">
          <mxGeometry width="50" height="50" relative="1" as="geometry">
            <mxPoint x="700" y="710" as="sourcePoint" />
            <mxPoint x="700" y="610" as="targetPoint" />
          </mxGeometry>
        </mxCell>
        <mxCell id="hBE5B_rOE-flIdbmFjBY-40" value="" style="endArrow=classic;startArrow=classic;html=1;rounded=0;exitX=0;exitY=0;exitDx=0;exitDy=0;entryX=0.5;entryY=1;entryDx=0;entryDy=0;" edge="1" parent="1" source="hBE5B_rOE-flIdbmFjBY-16" target="hBE5B_rOE-flIdbmFjBY-12">
          <mxGeometry width="50" height="50" relative="1" as="geometry">
            <mxPoint x="500" y="700" as="sourcePoint" />
            <mxPoint x="520" y="680" as="targetPoint" />
          </mxGeometry>
        </mxCell>
        <mxCell id="hBE5B_rOE-flIdbmFjBY-41" value="" style="endArrow=classic;startArrow=classic;html=1;rounded=0;exitX=0.5;exitY=0;exitDx=0;exitDy=0;entryX=0.5;entryY=1;entryDx=0;entryDy=0;" edge="1" parent="1" source="hBE5B_rOE-flIdbmFjBY-18" target="hBE5B_rOE-flIdbmFjBY-7">
          <mxGeometry width="50" height="50" relative="1" as="geometry">
            <mxPoint x="160" y="700" as="sourcePoint" />
            <mxPoint x="160" y="690" as="targetPoint" />
          </mxGeometry>
        </mxCell>
        <mxCell id="hBE5B_rOE-flIdbmFjBY-42" value="" style="endArrow=classic;startArrow=classic;html=1;rounded=0;exitX=0;exitY=0;exitDx=0;exitDy=0;entryX=0.5;entryY=1;entryDx=0;entryDy=0;" edge="1" parent="1" source="hBE5B_rOE-flIdbmFjBY-18" target="hBE5B_rOE-flIdbmFjBY-6">
          <mxGeometry width="50" height="50" relative="1" as="geometry">
            <mxPoint x="50" y="800" as="sourcePoint" />
            <mxPoint x="50" y="700" as="targetPoint" />
          </mxGeometry>
        </mxCell>
        <mxCell id="hBE5B_rOE-flIdbmFjBY-43" value="" style="endArrow=classic;startArrow=classic;html=1;rounded=0;exitX=0.5;exitY=0;exitDx=0;exitDy=0;entryX=0.5;entryY=1;entryDx=0;entryDy=0;" edge="1" parent="1" source="hBE5B_rOE-flIdbmFjBY-3" target="hBE5B_rOE-flIdbmFjBY-2">
          <mxGeometry width="50" height="50" relative="1" as="geometry">
            <mxPoint x="530" y="270" as="sourcePoint" />
            <mxPoint x="530" y="170" as="targetPoint" />
          </mxGeometry>
        </mxCell>
        <mxCell id="hBE5B_rOE-flIdbmFjBY-44" value="" style="endArrow=classic;startArrow=classic;html=1;rounded=0;exitX=0.5;exitY=0;exitDx=0;exitDy=0;entryX=0.5;entryY=1;entryDx=0;entryDy=0;" edge="1" parent="1" source="hBE5B_rOE-flIdbmFjBY-2" target="hBE5B_rOE-flIdbmFjBY-1">
          <mxGeometry width="50" height="50" relative="1" as="geometry">
            <mxPoint x="260" y="70" as="sourcePoint" />
            <mxPoint x="260" y="-30" as="targetPoint" />
          </mxGeometry>
        </mxCell>
        <mxCell id="hBE5B_rOE-flIdbmFjBY-45" value="&lt;font size=&quot;3&quot; face=&quot;Comic Sans MS&quot;&gt;U 1&lt;/font&gt;" style="rhombus;whiteSpace=wrap;html=1;" vertex="1" parent="1">
          <mxGeometry x="10" y="890" width="60" height="60" as="geometry" />
        </mxCell>
        <mxCell id="hBE5B_rOE-flIdbmFjBY-46" value="&lt;font size=&quot;3&quot; face=&quot;Comic Sans MS&quot;&gt;U 1&lt;/font&gt;" style="rhombus;whiteSpace=wrap;html=1;" vertex="1" parent="1">
          <mxGeometry x="107" y="890" width="60" height="60" as="geometry" />
        </mxCell>
        <mxCell id="hBE5B_rOE-flIdbmFjBY-47" value="&lt;font size=&quot;3&quot; face=&quot;Comic Sans MS&quot;&gt;U 1&lt;/font&gt;" style="rhombus;whiteSpace=wrap;html=1;" vertex="1" parent="1">
          <mxGeometry x="203" y="890" width="60" height="60" as="geometry" />
        </mxCell>
        <mxCell id="hBE5B_rOE-flIdbmFjBY-48" value="&lt;font size=&quot;3&quot; face=&quot;Comic Sans MS&quot;&gt;U 1&lt;/font&gt;" style="rhombus;whiteSpace=wrap;html=1;" vertex="1" parent="1">
          <mxGeometry x="300" y="890" width="60" height="60" as="geometry" />
        </mxCell>
        <mxCell id="hBE5B_rOE-flIdbmFjBY-49" value="&lt;font size=&quot;3&quot; face=&quot;Comic Sans MS&quot;&gt;U 1&lt;/font&gt;" style="rhombus;whiteSpace=wrap;html=1;" vertex="1" parent="1">
          <mxGeometry x="490" y="890" width="60" height="60" as="geometry" />
        </mxCell>
        <mxCell id="hBE5B_rOE-flIdbmFjBY-50" value="&lt;font size=&quot;3&quot; face=&quot;Comic Sans MS&quot;&gt;U 1&lt;/font&gt;" style="rhombus;whiteSpace=wrap;html=1;" vertex="1" parent="1">
          <mxGeometry x="580" y="890" width="60" height="60" as="geometry" />
        </mxCell>
        <mxCell id="hBE5B_rOE-flIdbmFjBY-51" value="&lt;font size=&quot;3&quot; face=&quot;Comic Sans MS&quot;&gt;U 1&lt;/font&gt;" style="rhombus;whiteSpace=wrap;html=1;" vertex="1" parent="1">
          <mxGeometry x="670" y="890" width="60" height="60" as="geometry" />
        </mxCell>
        <mxCell id="hBE5B_rOE-flIdbmFjBY-52" value="&lt;font size=&quot;3&quot; face=&quot;Comic Sans MS&quot;&gt;U 1&lt;/font&gt;" style="rhombus;whiteSpace=wrap;html=1;" vertex="1" parent="1">
          <mxGeometry x="760" y="890" width="60" height="60" as="geometry" />
        </mxCell>
        <mxCell id="hBE5B_rOE-flIdbmFjBY-53" value="" style="endArrow=classic;startArrow=classic;html=1;rounded=0;exitX=0.5;exitY=0;exitDx=0;exitDy=0;" edge="1" parent="1" source="hBE5B_rOE-flIdbmFjBY-45" target="hBE5B_rOE-flIdbmFjBY-18">
          <mxGeometry width="50" height="50" relative="1" as="geometry">
            <mxPoint x="70" y="870" as="sourcePoint" />
            <mxPoint x="120" y="820" as="targetPoint" />
          </mxGeometry>
        </mxCell>
        <mxCell id="hBE5B_rOE-flIdbmFjBY-54" value="" style="endArrow=classic;startArrow=classic;html=1;rounded=0;exitX=0.55;exitY=0;exitDx=0;exitDy=0;exitPerimeter=0;entryX=0.5;entryY=1;entryDx=0;entryDy=0;" edge="1" parent="1" source="hBE5B_rOE-flIdbmFjBY-46" target="hBE5B_rOE-flIdbmFjBY-18">
          <mxGeometry width="50" height="50" relative="1" as="geometry">
            <mxPoint x="130" y="880" as="sourcePoint" />
            <mxPoint x="180" y="830" as="targetPoint" />
          </mxGeometry>
        </mxCell>
        <mxCell id="hBE5B_rOE-flIdbmFjBY-55" value="" style="endArrow=classic;startArrow=classic;html=1;rounded=0;exitX=0.5;exitY=0;exitDx=0;exitDy=0;entryX=1;entryY=1;entryDx=0;entryDy=0;" edge="1" parent="1" source="hBE5B_rOE-flIdbmFjBY-47" target="hBE5B_rOE-flIdbmFjBY-18">
          <mxGeometry width="50" height="50" relative="1" as="geometry">
            <mxPoint x="210" y="880" as="sourcePoint" />
            <mxPoint x="260" y="830" as="targetPoint" />
          </mxGeometry>
        </mxCell>
        <mxCell id="hBE5B_rOE-flIdbmFjBY-56" value="" style="endArrow=classic;startArrow=classic;html=1;rounded=0;exitX=0.5;exitY=0;exitDx=0;exitDy=0;entryX=1.021;entryY=0.719;entryDx=0;entryDy=0;entryPerimeter=0;" edge="1" parent="1" source="hBE5B_rOE-flIdbmFjBY-48" target="hBE5B_rOE-flIdbmFjBY-18">
          <mxGeometry width="50" height="50" relative="1" as="geometry">
            <mxPoint x="330" y="880" as="sourcePoint" />
            <mxPoint x="380" y="830" as="targetPoint" />
          </mxGeometry>
        </mxCell>
        <mxCell id="hBE5B_rOE-flIdbmFjBY-57" value="" style="endArrow=classic;startArrow=classic;html=1;rounded=0;entryX=0;entryY=1;entryDx=0;entryDy=0;exitX=0.5;exitY=0;exitDx=0;exitDy=0;" edge="1" parent="1" source="hBE5B_rOE-flIdbmFjBY-49" target="hBE5B_rOE-flIdbmFjBY-16">
          <mxGeometry width="50" height="50" relative="1" as="geometry">
            <mxPoint x="520" y="880" as="sourcePoint" />
            <mxPoint x="570" y="830" as="targetPoint" />
          </mxGeometry>
        </mxCell>
        <mxCell id="hBE5B_rOE-flIdbmFjBY-58" value="" style="endArrow=classic;startArrow=classic;html=1;rounded=0;exitX=0.5;exitY=0;exitDx=0;exitDy=0;entryX=0.5;entryY=1;entryDx=0;entryDy=0;" edge="1" parent="1" source="hBE5B_rOE-flIdbmFjBY-50" target="hBE5B_rOE-flIdbmFjBY-16">
          <mxGeometry width="50" height="50" relative="1" as="geometry">
            <mxPoint x="600" y="880" as="sourcePoint" />
            <mxPoint x="650" y="830" as="targetPoint" />
          </mxGeometry>
        </mxCell>
        <mxCell id="hBE5B_rOE-flIdbmFjBY-59" value="" style="endArrow=classic;startArrow=classic;html=1;rounded=0;entryX=1;entryY=1;entryDx=0;entryDy=0;exitX=0.5;exitY=0;exitDx=0;exitDy=0;" edge="1" parent="1" source="hBE5B_rOE-flIdbmFjBY-51" target="hBE5B_rOE-flIdbmFjBY-16">
          <mxGeometry width="50" height="50" relative="1" as="geometry">
            <mxPoint x="700" y="880" as="sourcePoint" />
            <mxPoint x="720" y="840" as="targetPoint" />
          </mxGeometry>
        </mxCell>
        <mxCell id="hBE5B_rOE-flIdbmFjBY-60" value="" style="endArrow=classic;startArrow=classic;html=1;rounded=0;exitX=0.5;exitY=0;exitDx=0;exitDy=0;" edge="1" parent="1" source="hBE5B_rOE-flIdbmFjBY-52" target="hBE5B_rOE-flIdbmFjBY-16">
          <mxGeometry width="50" height="50" relative="1" as="geometry">
            <mxPoint x="770" y="890" as="sourcePoint" />
            <mxPoint x="820" y="840" as="targetPoint" />
          </mxGeometry>
        </mxCell>
        <mxCell id="hBE5B_rOE-flIdbmFjBY-61" value="&lt;font size=&quot;3&quot; face=&quot;Comic Sans MS&quot;&gt;Mumbai&lt;/font&gt;" style="ellipse;shape=cloud;whiteSpace=wrap;html=1;" vertex="1" parent="1">
          <mxGeometry x="10" y="320" width="120" height="80" as="geometry" />
        </mxCell>
        <mxCell id="hBE5B_rOE-flIdbmFjBY-62" value="&lt;font size=&quot;3&quot; face=&quot;Comic Sans MS&quot;&gt;London&lt;/font&gt;" style="ellipse;shape=cloud;whiteSpace=wrap;html=1;" vertex="1" parent="1">
          <mxGeometry x="700" y="320" width="120" height="80" as="geometry" />
        </mxCell>
      </root>
    </mxGraphModel>
  </diagram>
</mxfile>
